PathFileType	4	(X/Y/Z)	AB08\squats_1.trc
DataRate	CameraRate	NumFrames	NumMarkers	Units	OrigDataRate	OrigDataStartFrame	OrigNumFrames
200.000000	200.000000	4	35	mm	200.000000	79	317
Frame#	Time	C7			LSHO			STRN			LASI			RASI			RPSI			LGTR			RGTR			LTHC			LTHL			LTHR			LKNE			LMKNE			LSHC			LSHL			LSHR			LANK			LMANK			LMT1			LMT5			LCAL			RTHC			RTHL			RTHR			RKNE			RMKNE			RSHC			RSHL			RSHR			RANK			RMANK			RMT1			RMT5			RCAL			LPSI			
		X1	Y1	Z1	X2	Y2	Z2	X3	Y3	Z3	X4	Y4	Z4	X5	Y5	Z5	X6	Y6	Z6	X7	Y7	Z7	X8	Y8	Z8	X9	Y9	Z9	X10	Y10	Z10	X11	Y11	Z11	X12	Y12	Z12	X13	Y13	Z13	X14	Y14	Z14	X15	Y15	Z15	X16	Y16	Z16	X17	Y17	Z17	X18	Y18	Z18	X19	Y19	Z19	X20	Y20	Z20	X21	Y21	Z21	X22	Y22	Z22	X23	Y23	Z23	X24	Y24	Z24	X25	Y25	Z25	X26	Y26	Z26	X27	Y27	Z27	X28	Y28	Z28	X29	Y29	Z29	X30	Y30	Z30	X31	Y31	Z31	X32	Y32	Z32	X33	Y33	Z33	X34	Y34	Z34	X35	Y35	Z35	

80	30.675	-3535.35436037799	1291.584303064682	2518.937075882858	-3609.810356565225	1217.549846981388	2671.694311885635	-3575.536299983527	960.8636287393289	2534.531584519319	-3393.226028477161	792.5036977077117	2614.835910683746	-3402.619520851591	802.1877080486206	2391.350758773362	-3190.181264999445	884.5473578336378	2440.254169575586	-3269.126772243905	818.1822904254643	2709.200315550882	-3335.188975842889	792.8650860281416	2302.941551451167	-3475.654280316655	692.0342149705775	2715.137183655581	-3345.074974551753	559.3130680520034	2719.067590937166	-3464.168342085655	539.5240221117195	2771.011575581535	-3494.032396341633	453.3684114934354	2773.610030349786	-3543.480572678051	412.7032208096849	2674.787711702182	-3409.573004731817	410.6288510158728	2728.718362891731	-3506.264625920241	317.1912347276913	2689.775070686955	-3397.957500978192	241.137933544667	2787.542300814183	-3351.529983776146	94.38406427143109	2769.219240758016	-3387.169114275062	104.76461146194	2678.264791861344	-3503.269376681664	53.96882295311395	2715.221039723201	-3469.749575700514	49.90269103696985	2813.614388232013	-3288.57425224101	83.28504696814554	2707.760473715	-3461.581870234614	573.7345409288143	2261.096666535679	-3335.795937528678	554.6763317247492	2324.0691861063	-3513.015484604975	667.2741445357797	2392.811650369251	-3559.826808320868	450.9941956467468	2263.542582504007	-3571.675334368659	423.8251705839477	2380.980683654534	-3431.47852310872	249.1644653689545	2243.99254201292	-3417.330510579124	367.8526188475325	2306.904648207182	-3556.600160723649	303.3029206000321	2313.185158468896	-3375.092745675735	101.2206306558717	2259.965459950832	-3414.018210381998	108.3549584356258	2351.880688470183	-3530.779033211488	58.03258400680919	2305.465936233553	-3483.708610646363	52.69927394117715	2220.759858523259	-3302.975350502312	90.80927677620122	2317.36132382337	-3178.590469941842	888.4148455873777	2551.253211453952	
81	30.68	-3536.370695511169	1287.038434084378	2519.182903651264	-3610.821472182028	1212.935292466537	2671.924883058301	-3575.710036881824	956.282213697134	2534.800139842093	-3392.415373151293	789.2806119501199	2614.860125402107	-3401.967335371497	799.595876854172	2391.314577652269	-3189.577245342984	881.6104779914207	2440.219282443579	-3268.359058757831	815.3885192099519	2709.27032801428	-3334.483324907455	790.236391111997	2302.782258669766	-3475.108398185609	690.7396317639632	2714.835994328907	-3345.347512763663	557.2165707343523	2719.349240008835	-3464.768008459505	538.4429345230105	2771.259481320254	-3495.09552693865	452.7455854956121	2773.870365285969	-3544.513016722057	412.106112971277	2675.058688688666	-3410.630297868876	410.3461868768237	2728.947981643798	-3507.064986115156	316.7636695703868	2689.905578125439	-3398.556277106751	240.9393553748912	2787.582313833888	-3351.645015749675	94.43151807281046	2769.13125101482	-3387.314121294802	104.7328988224449	2678.176479196524	-3503.341985705891	53.920798978014	2715.206235197025	-3469.781555787895	49.93246972217524	2813.614637988858	-3288.650598744879	83.34661115321256	2707.63482811108	-3461.869193530648	572.3271051859118	2260.743177360336	-3335.999404857019	552.3095323946591	2323.579681048703	-3512.381104916426	665.7161738032448	2392.940161716897	-3560.897796582574	450.346365386744	2263.082298944311	-3572.866690174374	423.2341095717003	2380.496409356986	-3432.023287630072	248.9800020603972	2243.940816118313	-3418.344295372784	367.7064570246507	2306.788319789849	-3557.461992538941	302.7871366909777	2312.871019305914	-3375.216914036953	101.2896399180872	2260.131422978831	-3414.311607066458	108.3411710017865	2352.002261121227	-3530.911000929399	57.99959502182853	2305.420923701296	-3483.70537486825	52.68199498385862	2220.781801508398	-3303.150285531389	90.9061971371649	2317.690866635682	-3177.910205375151	885.4656169027977	2551.210622858976	
82	30.685	-3537.369664975712	1282.499486693175	2519.427126489976	-3611.83260457502	1208.334207083284	2672.145698492502	-3575.879447720201	951.7151499727642	2535.084404991553	-3391.633008449243	786.1194659881409	2614.917276606454	-3401.343041570752	797.0177913450644	2391.295306854563	-3188.991637030024	878.6635547415641	2440.187340377135	-3267.590321615348	812.5901267257802	2709.343072967426	-3333.808690978319	787.6177008420061	2302.641543530216	-3474.548891257297	689.4454034163786	2714.563113867656	-3345.609624812217	555.1221289438809	2719.628997993204	-3465.347058435362	537.3662504890044	2771.512475738	-3496.138382391719	452.1235239344634	2774.141906969452	-3545.538148095663	411.5112036206388	2675.345023794677	-3411.671566576967	410.0637680988454	2729.180578684517	-3507.858491617743	316.3391329641786	2690.048346256212	-3399.141538154362	240.7402437068711	2787.623206474786	-3351.756234980116	94.47842993819815	2769.041047943492	-3387.461288723202	104.7004743742155	2678.087384773457	-3503.415396413186	53.87721492509023	2715.195632299995	-3469.808790111046	49.95698547085068	2813.61450697747	-3288.729988324096	83.40756484732498	2707.509814490276	-3462.153490363705	570.9507142193135	2260.385038750076	-3336.198205208333	549.9703504003533	2323.074300664187	-3511.742530761876	664.1494928037121	2393.081957547665	-3561.947821279963	449.7094059384355	2262.613092853589	-3574.04778838087	422.6564565570629	2380.00183144289	-3432.557041496711	248.8012212681985	2243.889158102391	-3419.343654331615	367.5668217324128	2306.667609972339	-3558.311215718871	302.2842740694523	2312.550511230428	-3375.336794799193	101.3633192697441	2260.301264030337	-3414.609143079556	108.332968497414	2352.125815865413	-3531.04378089053	57.96846497011737	2305.375002346736	-3483.701550835018	52.66458617317615	2220.804884770069	-3303.329344899029	91.00678597247968	2318.029206820119	-3177.244913332809	882.5015427202461	2551.165627909301	
83	30.69	-3538.352187801389	1277.968921533406	2519.669306148313	-3612.842912940955	1203.745896199293	2672.356127045942	-3576.043434063994	947.1619592784638	2535.384324021686	-3390.878161284732	783.0215725458061	2615.007676786234	-3400.74373357898	794.4499478879724	2391.292473764778	-3188.423444932861	875.7055976201651	2440.157203061736	-3266.819797463115	809.790154787096	2709.418381738166	-3333.161635507307	785.0067015967009	2302.518920631475	-3473.977091786845	688.1520469973893	2714.317896325634	-3345.862608771868	553.0307202939496	2719.908029915857	-3465.906918601653	536.2941505887866	2771.770503545872	-3497.162056337297	451.5021886303277	2774.424512044745	-3546.556602860758	410.9192306596252	2675.645180944965	-3412.697033493677	409.7814443043312	2729.417110851613	-3508.645052311061	315.9176070338193	2690.202391066219	-3399.714257746356	240.5402158712091	2787.665372992613	-3351.863959865132	94.52475668133414	2768.948560315156	-3387.610583573155	104.6674939574844	2677.997252368545	-3503.489702914005	53.83790459688516	2715.188625019111	-3469.831343095248	49.97594623619544	2813.613433276532	-3288.81269196116	83.46792722402597	2707.385633279945	-3462.433662978019	569.6017970651401	2260.023545328867	-3336.392508503973	547.6561079486249	2322.556415086919	-3511.103176648484	662.5753805344553	2393.233904373739	-3562.977802224539	449.0830700930024	2262.135824636343	-3575.219648412822	422.0914615146879	2379.497689814882	-3433.080468392926	248.628374109965	2243.838301413026	-3420.329344942977	367.4337415266634	2306.543062422397	-3559.148561339774	301.7939795595289	2312.224149861327	-3375.452651325663	101.4415733609338	2260.475709235754	-3414.911063083099	108.3302478195114	2352.251597729887	-3531.176731541481	57.93895379549569	2305.328081138065	-3483.696766360511	52.64716568792995	2220.829067992744	-3303.512845568404	91.11116232505493	2318.37694213043	-3176.594220423426	879.5236059931802	2551.116993563089	
